<mxfile host="app.diagrams.net" modified="2024-05-07T18:24:19.330Z" agent="Mozilla/5.0 (Windows NT 10.0; Win64; x64) AppleWebKit/537.36 (KHTML, like Gecko) Chrome/123.0.0.0 Safari/537.36" etag="GZBR9qf-S8QLjWfTlVPm" version="24.3.1" type="google">
  <diagram id="C5RBs43oDa-KdzZeNtuy" name="Page-1">
    <mxGraphModel grid="1" page="1" gridSize="10" guides="1" tooltips="1" connect="1" arrows="1" fold="1" pageScale="1" pageWidth="827" pageHeight="1169" math="0" shadow="0">
      <root>
        <mxCell id="WIyWlLk6GJQsqaUBKTNV-0" />
        <mxCell id="WIyWlLk6GJQsqaUBKTNV-1" parent="WIyWlLk6GJQsqaUBKTNV-0" />
        <mxCell id="WIyWlLk6GJQsqaUBKTNV-2" value="" style="rounded=0;html=1;jettySize=auto;orthogonalLoop=1;fontSize=11;endArrow=none;endFill=0;endSize=8;strokeWidth=1;shadow=0;labelBackgroundColor=none;edgeStyle=orthogonalEdgeStyle;" edge="1" parent="WIyWlLk6GJQsqaUBKTNV-1" source="WIyWlLk6GJQsqaUBKTNV-3" target="WIyWlLk6GJQsqaUBKTNV-6">
          <mxGeometry relative="1" as="geometry" />
        </mxCell>
        <mxCell id="WIyWlLk6GJQsqaUBKTNV-3" value="users" style="rounded=1;whiteSpace=wrap;html=1;fontSize=12;glass=0;strokeWidth=1;shadow=0;" vertex="1" parent="WIyWlLk6GJQsqaUBKTNV-1">
          <mxGeometry x="160" y="-50" width="120" height="40" as="geometry" />
        </mxCell>
        <mxCell id="WIyWlLk6GJQsqaUBKTNV-5" value="N" style="edgeStyle=orthogonalEdgeStyle;rounded=0;html=1;jettySize=auto;orthogonalLoop=1;fontSize=11;endArrow=none;endFill=0;endSize=8;strokeWidth=1;shadow=0;labelBackgroundColor=none;" edge="1" parent="WIyWlLk6GJQsqaUBKTNV-1" source="WIyWlLk6GJQsqaUBKTNV-6" target="WIyWlLk6GJQsqaUBKTNV-7">
          <mxGeometry x="0.6332" y="10" relative="1" as="geometry">
            <mxPoint as="offset" />
            <Array as="points">
              <mxPoint x="220" y="430" />
            </Array>
          </mxGeometry>
        </mxCell>
        <mxCell id="WIyWlLk6GJQsqaUBKTNV-6" value="ComunicaciÃ³n" style="rhombus;whiteSpace=wrap;html=1;shadow=0;fontFamily=Helvetica;fontSize=12;align=center;strokeWidth=1;spacing=6;spacingTop=-4;" vertex="1" parent="WIyWlLk6GJQsqaUBKTNV-1">
          <mxGeometry x="170" y="320" width="100" height="80" as="geometry" />
        </mxCell>
        <mxCell id="WIyWlLk6GJQsqaUBKTNV-7" value="c&lt;span style=&quot;background-color: initial;&quot;&gt;ontact&lt;/span&gt;" style="rounded=1;whiteSpace=wrap;html=1;fontSize=12;glass=0;strokeWidth=1;shadow=0;" vertex="1" parent="WIyWlLk6GJQsqaUBKTNV-1">
          <mxGeometry x="460" y="410" width="120" height="40" as="geometry" />
        </mxCell>
        <mxCell id="WIyWlLk6GJQsqaUBKTNV-9" value="" style="edgeStyle=orthogonalEdgeStyle;rounded=0;html=1;jettySize=auto;orthogonalLoop=1;fontSize=11;endArrow=none;endFill=0;endSize=8;strokeWidth=1;shadow=0;labelBackgroundColor=none;entryX=0;entryY=0.75;entryDx=0;entryDy=0;" edge="1" parent="WIyWlLk6GJQsqaUBKTNV-1" target="zIrrqt9jHn9ZY_wC2e0F-20">
          <mxGeometry y="10" relative="1" as="geometry">
            <mxPoint as="offset" />
            <mxPoint x="220" y="220" as="sourcePoint" />
            <mxPoint x="50" y="340" as="targetPoint" />
            <Array as="points">
              <mxPoint x="220" y="250" />
              <mxPoint x="51" y="250" />
              <mxPoint x="51" y="340" />
              <mxPoint x="50" y="340" />
            </Array>
          </mxGeometry>
        </mxCell>
        <mxCell id="WIyWlLk6GJQsqaUBKTNV-11" value="chat" style="rounded=1;whiteSpace=wrap;html=1;fontSize=12;glass=0;strokeWidth=1;shadow=0;" vertex="1" parent="WIyWlLk6GJQsqaUBKTNV-1">
          <mxGeometry x="470" y="40" width="120" height="40" as="geometry" />
        </mxCell>
        <mxCell id="WIyWlLk6GJQsqaUBKTNV-12" value="education" style="rounded=1;whiteSpace=wrap;html=1;fontSize=12;glass=0;strokeWidth=1;shadow=0;" vertex="1" parent="WIyWlLk6GJQsqaUBKTNV-1">
          <mxGeometry x="-10" y="320" width="120" height="40" as="geometry" />
        </mxCell>
        <mxCell id="zIrrqt9jHn9ZY_wC2e0F-0" value="posts" style="rounded=1;whiteSpace=wrap;html=1;fontSize=12;glass=0;strokeWidth=1;shadow=0;" vertex="1" parent="WIyWlLk6GJQsqaUBKTNV-1">
          <mxGeometry x="450" y="210" width="120" height="40" as="geometry" />
        </mxCell>
        <mxCell id="zIrrqt9jHn9ZY_wC2e0F-1" value="company" style="rounded=1;whiteSpace=wrap;html=1;fontSize=12;glass=0;strokeWidth=1;shadow=0;" vertex="1" parent="WIyWlLk6GJQsqaUBKTNV-1">
          <mxGeometry x="-480" y="140" width="120" height="40" as="geometry" />
        </mxCell>
        <mxCell id="zIrrqt9jHn9ZY_wC2e0F-3" value="jobHistory" style="rounded=1;whiteSpace=wrap;html=1;fontSize=12;glass=0;strokeWidth=1;shadow=0;" vertex="1" parent="WIyWlLk6GJQsqaUBKTNV-1">
          <mxGeometry x="-150" y="140" width="120" height="40" as="geometry" />
        </mxCell>
        <mxCell id="zIrrqt9jHn9ZY_wC2e0F-5" value="&lt;span style=&quot;color: rgb(0, 0, 0); font-family: Helvetica; font-size: 11px; font-style: normal; font-variant-ligatures: normal; font-variant-caps: normal; font-weight: 400; letter-spacing: normal; orphans: 2; text-align: center; text-indent: 0px; text-transform: none; widows: 2; word-spacing: 0px; -webkit-text-stroke-width: 0px; white-space: nowrap; background-color: rgb(251, 251, 251); text-decoration-thickness: initial; text-decoration-style: initial; text-decoration-color: initial; display: inline !important; float: none;&quot;&gt;1&lt;/span&gt;" style="text;whiteSpace=wrap;html=1;" vertex="1" parent="WIyWlLk6GJQsqaUBKTNV-1">
          <mxGeometry x="220" y="40" width="40" height="40" as="geometry" />
        </mxCell>
        <mxCell id="zIrrqt9jHn9ZY_wC2e0F-7" value="N" style="edgeStyle=orthogonalEdgeStyle;rounded=0;html=1;jettySize=auto;orthogonalLoop=1;fontSize=11;endArrow=none;endFill=0;endSize=8;strokeWidth=1;shadow=0;labelBackgroundColor=none;exitX=0;exitY=0.5;exitDx=0;exitDy=0;" edge="1" parent="WIyWlLk6GJQsqaUBKTNV-1" source="zIrrqt9jHn9ZY_wC2e0F-8" target="zIrrqt9jHn9ZY_wC2e0F-3">
          <mxGeometry x="0.6923" y="-10" relative="1" as="geometry">
            <mxPoint as="offset" />
            <mxPoint x="140" y="160" as="sourcePoint" />
            <mxPoint x="190" y="160" as="targetPoint" />
            <Array as="points">
              <mxPoint x="40" y="160" />
            </Array>
          </mxGeometry>
        </mxCell>
        <mxCell id="zIrrqt9jHn9ZY_wC2e0F-9" value="" style="edgeStyle=orthogonalEdgeStyle;rounded=0;html=1;jettySize=auto;orthogonalLoop=1;fontSize=11;endArrow=none;endFill=0;endSize=8;strokeWidth=1;shadow=0;labelBackgroundColor=none;exitX=0;exitY=1;exitDx=0;exitDy=0;entryX=1;entryY=0.5;entryDx=0;entryDy=0;" edge="1" parent="WIyWlLk6GJQsqaUBKTNV-1" source="zIrrqt9jHn9ZY_wC2e0F-5" target="zIrrqt9jHn9ZY_wC2e0F-8">
          <mxGeometry x="0.6923" y="-10" relative="1" as="geometry">
            <mxPoint as="offset" />
            <mxPoint x="200" y="170" as="sourcePoint" />
            <mxPoint x="-30" y="140" as="targetPoint" />
            <Array as="points">
              <mxPoint x="210" y="160" />
              <mxPoint x="210" y="160" />
            </Array>
          </mxGeometry>
        </mxCell>
        <mxCell id="zIrrqt9jHn9ZY_wC2e0F-8" value="Posee" style="rhombus;whiteSpace=wrap;html=1;shadow=0;fontFamily=Helvetica;fontSize=12;align=center;strokeWidth=1;spacing=6;spacingTop=-4;" vertex="1" parent="WIyWlLk6GJQsqaUBKTNV-1">
          <mxGeometry x="40" y="120" width="100" height="80" as="geometry" />
        </mxCell>
        <mxCell id="zIrrqt9jHn9ZY_wC2e0F-10" value="Tiene" style="rhombus;whiteSpace=wrap;html=1;shadow=0;fontFamily=Helvetica;fontSize=12;align=center;strokeWidth=1;spacing=6;spacingTop=-4;" vertex="1" parent="WIyWlLk6GJQsqaUBKTNV-1">
          <mxGeometry x="300" y="20" width="100" height="80" as="geometry" />
        </mxCell>
        <mxCell id="zIrrqt9jHn9ZY_wC2e0F-11" value="" style="edgeStyle=orthogonalEdgeStyle;rounded=0;html=1;jettySize=auto;orthogonalLoop=1;fontSize=11;endArrow=none;endFill=0;endSize=8;strokeWidth=1;shadow=0;labelBackgroundColor=none;" edge="1" parent="WIyWlLk6GJQsqaUBKTNV-1" source="zIrrqt9jHn9ZY_wC2e0F-10">
          <mxGeometry x="0.6923" y="-10" relative="1" as="geometry">
            <mxPoint as="offset" />
            <mxPoint x="300" y="140" as="sourcePoint" />
            <mxPoint x="220" y="140" as="targetPoint" />
            <Array as="points">
              <mxPoint x="220" y="60" />
              <mxPoint x="220" y="140" />
            </Array>
          </mxGeometry>
        </mxCell>
        <mxCell id="zIrrqt9jHn9ZY_wC2e0F-16" value="" style="edgeStyle=orthogonalEdgeStyle;rounded=0;orthogonalLoop=1;jettySize=auto;html=1;endArrow=none;endFill=0;" edge="1" parent="WIyWlLk6GJQsqaUBKTNV-1" target="zIrrqt9jHn9ZY_wC2e0F-10">
          <mxGeometry relative="1" as="geometry">
            <mxPoint x="470" y="60" as="sourcePoint" />
            <Array as="points">
              <mxPoint x="440" y="60" />
            </Array>
          </mxGeometry>
        </mxCell>
        <mxCell id="zIrrqt9jHn9ZY_wC2e0F-18" value="&lt;span style=&quot;color: rgb(0, 0, 0); font-family: Helvetica; font-size: 11px; font-style: normal; font-variant-ligatures: normal; font-variant-caps: normal; font-weight: 400; letter-spacing: normal; orphans: 2; text-align: center; text-indent: 0px; text-transform: none; widows: 2; word-spacing: 0px; -webkit-text-stroke-width: 0px; white-space: nowrap; background-color: rgb(251, 251, 251); text-decoration-thickness: initial; text-decoration-style: initial; text-decoration-color: initial; display: inline !important; float: none;&quot;&gt;N&lt;/span&gt;" style="text;whiteSpace=wrap;html=1;" vertex="1" parent="WIyWlLk6GJQsqaUBKTNV-1">
          <mxGeometry x="455.72" y="40" width="24.28" height="20" as="geometry" />
        </mxCell>
        <mxCell id="zIrrqt9jHn9ZY_wC2e0F-19" value="Contiene" style="rhombus;whiteSpace=wrap;html=1;shadow=0;fontFamily=Helvetica;fontSize=12;align=center;strokeWidth=1;spacing=6;spacingTop=-4;" vertex="1" parent="WIyWlLk6GJQsqaUBKTNV-1">
          <mxGeometry x="90" y="210" width="100" height="80" as="geometry" />
        </mxCell>
        <mxCell id="zIrrqt9jHn9ZY_wC2e0F-20" value="&lt;span style=&quot;color: rgb(0, 0, 0); font-family: Helvetica; font-size: 11px; font-style: normal; font-variant-ligatures: normal; font-variant-caps: normal; font-weight: 400; letter-spacing: normal; orphans: 2; text-align: center; text-indent: 0px; text-transform: none; widows: 2; word-spacing: 0px; -webkit-text-stroke-width: 0px; white-space: nowrap; background-color: rgb(251, 251, 251); text-decoration-thickness: initial; text-decoration-style: initial; text-decoration-color: initial; display: inline !important; float: none;&quot;&gt;N&lt;/span&gt;" style="text;whiteSpace=wrap;html=1;" vertex="1" parent="WIyWlLk6GJQsqaUBKTNV-1">
          <mxGeometry x="50" y="290" width="40" height="40" as="geometry" />
        </mxCell>
        <mxCell id="zIrrqt9jHn9ZY_wC2e0F-23" value="Asociado" style="rhombus;whiteSpace=wrap;html=1;shadow=0;fontFamily=Helvetica;fontSize=12;align=center;strokeWidth=1;spacing=6;spacingTop=-4;" vertex="1" parent="WIyWlLk6GJQsqaUBKTNV-1">
          <mxGeometry x="-300" y="120" width="100" height="80" as="geometry" />
        </mxCell>
        <mxCell id="zIrrqt9jHn9ZY_wC2e0F-24" value="" style="edgeStyle=orthogonalEdgeStyle;rounded=0;html=1;jettySize=auto;orthogonalLoop=1;fontSize=11;endArrow=none;endFill=0;endSize=8;strokeWidth=1;shadow=0;labelBackgroundColor=none;entryX=1;entryY=0.5;entryDx=0;entryDy=0;" edge="1" parent="WIyWlLk6GJQsqaUBKTNV-1">
          <mxGeometry x="0.6923" y="-10" relative="1" as="geometry">
            <mxPoint as="offset" />
            <mxPoint x="-150" y="159" as="sourcePoint" />
            <mxPoint x="-200" y="159.31" as="targetPoint" />
            <Array as="points">
              <mxPoint x="-200" y="159.31" />
            </Array>
          </mxGeometry>
        </mxCell>
        <mxCell id="zIrrqt9jHn9ZY_wC2e0F-25" value="" style="edgeStyle=orthogonalEdgeStyle;rounded=0;html=1;jettySize=auto;orthogonalLoop=1;fontSize=11;endArrow=none;endFill=0;endSize=8;strokeWidth=1;shadow=0;labelBackgroundColor=none;entryX=1;entryY=0.5;entryDx=0;entryDy=0;" edge="1" parent="WIyWlLk6GJQsqaUBKTNV-1" target="zIrrqt9jHn9ZY_wC2e0F-1">
          <mxGeometry x="0.6923" y="-10" relative="1" as="geometry">
            <mxPoint as="offset" />
            <mxPoint x="-300" y="159.43" as="sourcePoint" />
            <mxPoint x="-350" y="159.74" as="targetPoint" />
            <Array as="points">
              <mxPoint x="-350" y="159" />
            </Array>
          </mxGeometry>
        </mxCell>
        <mxCell id="zIrrqt9jHn9ZY_wC2e0F-26" value="&lt;span style=&quot;color: rgb(0, 0, 0); font-family: Helvetica; font-size: 11px; font-style: normal; font-variant-ligatures: normal; font-variant-caps: normal; font-weight: 400; letter-spacing: normal; orphans: 2; text-align: center; text-indent: 0px; text-transform: none; widows: 2; word-spacing: 0px; -webkit-text-stroke-width: 0px; white-space: nowrap; background-color: rgb(251, 251, 251); text-decoration-thickness: initial; text-decoration-style: initial; text-decoration-color: initial; display: inline !important; float: none;&quot;&gt;N&lt;/span&gt;" style="text;whiteSpace=wrap;html=1;" vertex="1" parent="WIyWlLk6GJQsqaUBKTNV-1">
          <mxGeometry x="-170" y="135" width="20" height="30" as="geometry" />
        </mxCell>
        <mxCell id="zIrrqt9jHn9ZY_wC2e0F-27" value="&lt;span style=&quot;color: rgb(0, 0, 0); font-family: Helvetica; font-size: 11px; font-style: normal; font-variant-ligatures: normal; font-variant-caps: normal; font-weight: 400; letter-spacing: normal; orphans: 2; text-align: center; text-indent: 0px; text-transform: none; widows: 2; word-spacing: 0px; -webkit-text-stroke-width: 0px; white-space: nowrap; background-color: rgb(251, 251, 251); text-decoration-thickness: initial; text-decoration-style: initial; text-decoration-color: initial; display: inline !important; float: none;&quot;&gt;1&lt;/span&gt;" style="text;whiteSpace=wrap;html=1;" vertex="1" parent="WIyWlLk6GJQsqaUBKTNV-1">
          <mxGeometry x="-350" y="140" width="40" height="40" as="geometry" />
        </mxCell>
        <mxCell id="zIrrqt9jHn9ZY_wC2e0F-29" value="&lt;span style=&quot;color: rgb(0, 0, 0); font-family: Helvetica; font-size: 11px; font-style: normal; font-variant-ligatures: normal; font-variant-caps: normal; font-weight: 400; letter-spacing: normal; orphans: 2; text-align: center; text-indent: 0px; text-transform: none; widows: 2; word-spacing: 0px; -webkit-text-stroke-width: 0px; white-space: nowrap; background-color: rgb(251, 251, 251); text-decoration-thickness: initial; text-decoration-style: initial; text-decoration-color: initial; display: inline !important; float: none;&quot;&gt;N&lt;/span&gt;" style="text;whiteSpace=wrap;html=1;" vertex="1" parent="WIyWlLk6GJQsqaUBKTNV-1">
          <mxGeometry x="200" y="220" width="30" height="40" as="geometry" />
        </mxCell>
        <mxCell id="zIrrqt9jHn9ZY_wC2e0F-33" value="&lt;span style=&quot;color: rgb(0, 0, 0); font-family: Helvetica; font-size: 11px; font-style: normal; font-variant-ligatures: normal; font-variant-caps: normal; font-weight: 400; letter-spacing: normal; orphans: 2; text-align: center; text-indent: 0px; text-transform: none; widows: 2; word-spacing: 0px; -webkit-text-stroke-width: 0px; white-space: nowrap; background-color: rgb(251, 251, 251); text-decoration-thickness: initial; text-decoration-style: initial; text-decoration-color: initial; display: inline !important; float: none;&quot;&gt;1&lt;/span&gt;" style="text;whiteSpace=wrap;html=1;" vertex="1" parent="WIyWlLk6GJQsqaUBKTNV-1">
          <mxGeometry x="200" y="140" width="10" height="20" as="geometry" />
        </mxCell>
        <mxCell id="zIrrqt9jHn9ZY_wC2e0F-36" value="" style="edgeStyle=orthogonalEdgeStyle;rounded=0;html=1;jettySize=auto;orthogonalLoop=1;fontSize=11;endArrow=none;endFill=0;endSize=8;strokeWidth=1;shadow=0;labelBackgroundColor=none;exitX=0;exitY=0.5;exitDx=0;exitDy=0;entryX=1;entryY=0.5;entryDx=0;entryDy=0;" edge="1" parent="WIyWlLk6GJQsqaUBKTNV-1" source="zIrrqt9jHn9ZY_wC2e0F-37">
          <mxGeometry x="0.6923" y="-10" relative="1" as="geometry">
            <mxPoint as="offset" />
            <mxPoint x="300" y="210" as="sourcePoint" />
            <mxPoint x="220" y="210" as="targetPoint" />
            <Array as="points">
              <mxPoint x="220" y="220" />
            </Array>
          </mxGeometry>
        </mxCell>
        <mxCell id="zIrrqt9jHn9ZY_wC2e0F-38" value="" style="edgeStyle=orthogonalEdgeStyle;rounded=0;html=1;jettySize=auto;orthogonalLoop=1;fontSize=11;endArrow=none;endFill=0;endSize=8;strokeWidth=1;shadow=0;labelBackgroundColor=none;exitX=0;exitY=0.5;exitDx=0;exitDy=0;entryX=1;entryY=0.5;entryDx=0;entryDy=0;" edge="1" parent="WIyWlLk6GJQsqaUBKTNV-1" source="zIrrqt9jHn9ZY_wC2e0F-0" target="zIrrqt9jHn9ZY_wC2e0F-37">
          <mxGeometry x="0.6923" y="-10" relative="1" as="geometry">
            <mxPoint as="offset" />
            <mxPoint x="414" y="210" as="sourcePoint" />
            <mxPoint x="220" y="210" as="targetPoint" />
            <Array as="points">
              <mxPoint x="450" y="220" />
            </Array>
          </mxGeometry>
        </mxCell>
        <mxCell id="zIrrqt9jHn9ZY_wC2e0F-37" value="Comunican" style="rhombus;whiteSpace=wrap;html=1;shadow=0;fontFamily=Helvetica;fontSize=12;align=center;strokeWidth=1;spacing=6;spacingTop=-4;" vertex="1" parent="WIyWlLk6GJQsqaUBKTNV-1">
          <mxGeometry x="270" y="180" width="100" height="80" as="geometry" />
        </mxCell>
        <mxCell id="zIrrqt9jHn9ZY_wC2e0F-39" value="&lt;span style=&quot;color: rgb(0, 0, 0); font-family: Helvetica; font-size: 11px; font-style: normal; font-variant-ligatures: normal; font-variant-caps: normal; font-weight: 400; letter-spacing: normal; orphans: 2; text-align: center; text-indent: 0px; text-transform: none; widows: 2; word-spacing: 0px; -webkit-text-stroke-width: 0px; white-space: nowrap; background-color: rgb(251, 251, 251); text-decoration-thickness: initial; text-decoration-style: initial; text-decoration-color: initial; display: inline !important; float: none;&quot;&gt;1&lt;/span&gt;" style="text;whiteSpace=wrap;html=1;" vertex="1" parent="WIyWlLk6GJQsqaUBKTNV-1">
          <mxGeometry x="230" y="200" width="20" height="20" as="geometry" />
        </mxCell>
        <mxCell id="zIrrqt9jHn9ZY_wC2e0F-40" value="&lt;span style=&quot;color: rgb(0, 0, 0); font-family: Helvetica; font-size: 11px; font-style: normal; font-variant-ligatures: normal; font-variant-caps: normal; font-weight: 400; letter-spacing: normal; orphans: 2; text-align: center; text-indent: 0px; text-transform: none; widows: 2; word-spacing: 0px; -webkit-text-stroke-width: 0px; white-space: nowrap; background-color: rgb(251, 251, 251); text-decoration-thickness: initial; text-decoration-style: initial; text-decoration-color: initial; display: inline !important; float: none;&quot;&gt;N&lt;/span&gt;" style="text;whiteSpace=wrap;html=1;" vertex="1" parent="WIyWlLk6GJQsqaUBKTNV-1">
          <mxGeometry x="435.72" y="200" width="20" height="20" as="geometry" />
        </mxCell>
        <mxCell id="zIrrqt9jHn9ZY_wC2e0F-41" value="&lt;span style=&quot;color: rgb(0, 0, 0); font-family: Helvetica; font-size: 11px; font-style: normal; font-variant-ligatures: normal; font-variant-caps: normal; font-weight: 400; letter-spacing: normal; orphans: 2; text-align: center; text-indent: 0px; text-transform: none; widows: 2; word-spacing: 0px; -webkit-text-stroke-width: 0px; white-space: nowrap; background-color: rgb(251, 251, 251); text-decoration-thickness: initial; text-decoration-style: initial; text-decoration-color: initial; display: inline !important; float: none;&quot;&gt;1&lt;/span&gt;" style="text;whiteSpace=wrap;html=1;" vertex="1" parent="WIyWlLk6GJQsqaUBKTNV-1">
          <mxGeometry x="220" y="300" width="40" height="40" as="geometry" />
        </mxCell>
        <mxCell id="zIrrqt9jHn9ZY_wC2e0F-42" value="&lt;b&gt;&lt;u&gt;name&lt;/u&gt;&lt;/b&gt;" style="ellipse;whiteSpace=wrap;html=1;" vertex="1" parent="WIyWlLk6GJQsqaUBKTNV-1">
          <mxGeometry x="-640" y="100" width="70" height="40" as="geometry" />
        </mxCell>
        <mxCell id="zIrrqt9jHn9ZY_wC2e0F-43" value="description" style="ellipse;whiteSpace=wrap;html=1;" vertex="1" parent="WIyWlLk6GJQsqaUBKTNV-1">
          <mxGeometry x="-640" y="170" width="70" height="40" as="geometry" />
        </mxCell>
        <mxCell id="zIrrqt9jHn9ZY_wC2e0F-46" value="" style="endArrow=none;html=1;rounded=0;entryX=1;entryY=0.5;entryDx=0;entryDy=0;" edge="1" parent="WIyWlLk6GJQsqaUBKTNV-1" target="zIrrqt9jHn9ZY_wC2e0F-42">
          <mxGeometry width="50" height="50" relative="1" as="geometry">
            <mxPoint x="-480" y="150" as="sourcePoint" />
            <mxPoint x="-260" y="130" as="targetPoint" />
          </mxGeometry>
        </mxCell>
        <mxCell id="zIrrqt9jHn9ZY_wC2e0F-47" value="" style="endArrow=none;html=1;rounded=0;entryX=1;entryY=0.5;entryDx=0;entryDy=0;exitX=0;exitY=0.5;exitDx=0;exitDy=0;" edge="1" parent="WIyWlLk6GJQsqaUBKTNV-1" source="zIrrqt9jHn9ZY_wC2e0F-1" target="zIrrqt9jHn9ZY_wC2e0F-43">
          <mxGeometry width="50" height="50" relative="1" as="geometry">
            <mxPoint x="-470" y="160" as="sourcePoint" />
            <mxPoint x="-560" y="130" as="targetPoint" />
          </mxGeometry>
        </mxCell>
        <mxCell id="zIrrqt9jHn9ZY_wC2e0F-48" value="jobRole" style="ellipse;whiteSpace=wrap;html=1;" vertex="1" parent="WIyWlLk6GJQsqaUBKTNV-1">
          <mxGeometry x="-285" y="10" width="70" height="40" as="geometry" />
        </mxCell>
        <mxCell id="zIrrqt9jHn9ZY_wC2e0F-49" value="&lt;b&gt;&lt;u&gt;companyName&lt;/u&gt;&lt;/b&gt;" style="ellipse;whiteSpace=wrap;html=1;" vertex="1" parent="WIyWlLk6GJQsqaUBKTNV-1">
          <mxGeometry x="-30" y="10" width="90" height="40" as="geometry" />
        </mxCell>
        <mxCell id="zIrrqt9jHn9ZY_wC2e0F-50" value="jobDescription" style="ellipse;whiteSpace=wrap;html=1;" vertex="1" parent="WIyWlLk6GJQsqaUBKTNV-1">
          <mxGeometry x="-205" y="10" width="90" height="40" as="geometry" />
        </mxCell>
        <mxCell id="zIrrqt9jHn9ZY_wC2e0F-51" value="&lt;b&gt;&lt;u&gt;userId&lt;/u&gt;&lt;/b&gt;" style="ellipse;whiteSpace=wrap;html=1;" vertex="1" parent="WIyWlLk6GJQsqaUBKTNV-1">
          <mxGeometry x="-110" y="10" width="70" height="40" as="geometry" />
        </mxCell>
        <mxCell id="zIrrqt9jHn9ZY_wC2e0F-54" value="" style="endArrow=none;html=1;rounded=0;exitX=0.142;exitY=-0.04;exitDx=0;exitDy=0;exitPerimeter=0;" edge="1" parent="WIyWlLk6GJQsqaUBKTNV-1" source="zIrrqt9jHn9ZY_wC2e0F-3">
          <mxGeometry width="50" height="50" relative="1" as="geometry">
            <mxPoint x="-300" y="100" as="sourcePoint" />
            <mxPoint x="-250" y="50" as="targetPoint" />
          </mxGeometry>
        </mxCell>
        <mxCell id="zIrrqt9jHn9ZY_wC2e0F-55" value="" style="endArrow=none;html=1;rounded=0;exitX=0.297;exitY=-0.022;exitDx=0;exitDy=0;exitPerimeter=0;entryX=0.5;entryY=1;entryDx=0;entryDy=0;" edge="1" parent="WIyWlLk6GJQsqaUBKTNV-1" source="zIrrqt9jHn9ZY_wC2e0F-3" target="zIrrqt9jHn9ZY_wC2e0F-50">
          <mxGeometry width="50" height="50" relative="1" as="geometry">
            <mxPoint x="-59" y="135" as="sourcePoint" />
            <mxPoint x="-170" y="48" as="targetPoint" />
          </mxGeometry>
        </mxCell>
        <mxCell id="zIrrqt9jHn9ZY_wC2e0F-56" value="" style="endArrow=none;html=1;rounded=0;exitX=0.591;exitY=-0.04;exitDx=0;exitDy=0;exitPerimeter=0;" edge="1" parent="WIyWlLk6GJQsqaUBKTNV-1" source="zIrrqt9jHn9ZY_wC2e0F-3">
          <mxGeometry width="50" height="50" relative="1" as="geometry">
            <mxPoint x="-20" y="141" as="sourcePoint" />
            <mxPoint x="-76" y="50" as="targetPoint" />
          </mxGeometry>
        </mxCell>
        <mxCell id="zIrrqt9jHn9ZY_wC2e0F-57" value="" style="endArrow=none;html=1;rounded=0;exitX=0.75;exitY=0;exitDx=0;exitDy=0;" edge="1" parent="WIyWlLk6GJQsqaUBKTNV-1" source="zIrrqt9jHn9ZY_wC2e0F-3">
          <mxGeometry width="50" height="50" relative="1" as="geometry">
            <mxPoint x="10" y="135" as="sourcePoint" />
            <mxPoint x="10" y="50" as="targetPoint" />
          </mxGeometry>
        </mxCell>
        <mxCell id="zIrrqt9jHn9ZY_wC2e0F-58" value="username" style="ellipse;whiteSpace=wrap;html=1;" vertex="1" parent="WIyWlLk6GJQsqaUBKTNV-1">
          <mxGeometry x="240" y="-190" width="70" height="40" as="geometry" />
        </mxCell>
        <mxCell id="zIrrqt9jHn9ZY_wC2e0F-59" value="&lt;b&gt;&lt;u&gt;userId&lt;/u&gt;&lt;/b&gt;" style="ellipse;whiteSpace=wrap;html=1;" vertex="1" parent="WIyWlLk6GJQsqaUBKTNV-1">
          <mxGeometry x="-70" y="-140" width="70" height="40" as="geometry" />
        </mxCell>
        <mxCell id="zIrrqt9jHn9ZY_wC2e0F-60" value="createdAt" style="ellipse;whiteSpace=wrap;html=1;" vertex="1" parent="WIyWlLk6GJQsqaUBKTNV-1">
          <mxGeometry x="140" y="-190" width="90" height="40" as="geometry" />
        </mxCell>
        <mxCell id="zIrrqt9jHn9ZY_wC2e0F-61" value="suscription" style="ellipse;whiteSpace=wrap;html=1;" vertex="1" parent="WIyWlLk6GJQsqaUBKTNV-1">
          <mxGeometry x="-40" y="-190" width="80" height="40" as="geometry" />
        </mxCell>
        <mxCell id="zIrrqt9jHn9ZY_wC2e0F-62" value="mail" style="ellipse;whiteSpace=wrap;html=1;" vertex="1" parent="WIyWlLk6GJQsqaUBKTNV-1">
          <mxGeometry x="420" y="-190" width="90" height="40" as="geometry" />
        </mxCell>
        <mxCell id="zIrrqt9jHn9ZY_wC2e0F-63" value="phoneNumber" style="ellipse;whiteSpace=wrap;html=1;" vertex="1" parent="WIyWlLk6GJQsqaUBKTNV-1">
          <mxGeometry x="45" y="-190" width="90" height="40" as="geometry" />
        </mxCell>
        <mxCell id="zIrrqt9jHn9ZY_wC2e0F-64" value="age" style="ellipse;whiteSpace=wrap;html=1;" vertex="1" parent="WIyWlLk6GJQsqaUBKTNV-1">
          <mxGeometry x="460" y="-140" width="60" height="40" as="geometry" />
        </mxCell>
        <mxCell id="zIrrqt9jHn9ZY_wC2e0F-65" value="contactsNumber" style="ellipse;whiteSpace=wrap;html=1;" vertex="1" parent="WIyWlLk6GJQsqaUBKTNV-1">
          <mxGeometry x="314" y="-190" width="100" height="40" as="geometry" />
        </mxCell>
        <mxCell id="zIrrqt9jHn9ZY_wC2e0F-68" value="" style="endArrow=none;html=1;rounded=0;exitX=0.289;exitY=-0.032;exitDx=0;exitDy=0;entryX=0.5;entryY=1;entryDx=0;entryDy=0;exitPerimeter=0;" edge="1" parent="WIyWlLk6GJQsqaUBKTNV-1" source="WIyWlLk6GJQsqaUBKTNV-3" target="zIrrqt9jHn9ZY_wC2e0F-61">
          <mxGeometry width="50" height="50" relative="1" as="geometry">
            <mxPoint x="-50" y="150" as="sourcePoint" />
            <mxPoint x="20" y="60" as="targetPoint" />
          </mxGeometry>
        </mxCell>
        <mxCell id="zIrrqt9jHn9ZY_wC2e0F-69" value="" style="endArrow=none;html=1;rounded=0;entryX=0.5;entryY=1;entryDx=0;entryDy=0;exitX=0.346;exitY=-0.032;exitDx=0;exitDy=0;exitPerimeter=0;" edge="1" parent="WIyWlLk6GJQsqaUBKTNV-1" source="WIyWlLk6GJQsqaUBKTNV-3" target="zIrrqt9jHn9ZY_wC2e0F-63">
          <mxGeometry width="50" height="50" relative="1" as="geometry">
            <mxPoint x="200" y="-50" as="sourcePoint" />
            <mxPoint x="10" y="-140" as="targetPoint" />
          </mxGeometry>
        </mxCell>
        <mxCell id="zIrrqt9jHn9ZY_wC2e0F-70" value="" style="endArrow=none;html=1;rounded=0;exitX=0.158;exitY=-0.035;exitDx=0;exitDy=0;entryX=1;entryY=0.5;entryDx=0;entryDy=0;exitPerimeter=0;" edge="1" parent="WIyWlLk6GJQsqaUBKTNV-1" source="WIyWlLk6GJQsqaUBKTNV-3" target="zIrrqt9jHn9ZY_wC2e0F-59">
          <mxGeometry width="50" height="50" relative="1" as="geometry">
            <mxPoint x="175" y="-39" as="sourcePoint" />
            <mxPoint x="10" y="-140" as="targetPoint" />
          </mxGeometry>
        </mxCell>
        <mxCell id="zIrrqt9jHn9ZY_wC2e0F-71" value="" style="endArrow=none;html=1;rounded=0;entryX=0.347;entryY=1.02;entryDx=0;entryDy=0;entryPerimeter=0;exitX=0.427;exitY=-0.015;exitDx=0;exitDy=0;exitPerimeter=0;" edge="1" parent="WIyWlLk6GJQsqaUBKTNV-1" source="WIyWlLk6GJQsqaUBKTNV-3" target="zIrrqt9jHn9ZY_wC2e0F-60">
          <mxGeometry width="50" height="50" relative="1" as="geometry">
            <mxPoint x="200" y="-50" as="sourcePoint" />
            <mxPoint x="100" y="-140" as="targetPoint" />
          </mxGeometry>
        </mxCell>
        <mxCell id="zIrrqt9jHn9ZY_wC2e0F-72" value="" style="endArrow=none;html=1;rounded=0;entryX=0.318;entryY=1.037;entryDx=0;entryDy=0;entryPerimeter=0;exitX=0.559;exitY=0.003;exitDx=0;exitDy=0;exitPerimeter=0;" edge="1" parent="WIyWlLk6GJQsqaUBKTNV-1" source="WIyWlLk6GJQsqaUBKTNV-3" target="zIrrqt9jHn9ZY_wC2e0F-58">
          <mxGeometry width="50" height="50" relative="1" as="geometry">
            <mxPoint x="210" y="-40" as="sourcePoint" />
            <mxPoint x="181" y="-139" as="targetPoint" />
          </mxGeometry>
        </mxCell>
        <mxCell id="zIrrqt9jHn9ZY_wC2e0F-73" value="" style="endArrow=none;html=1;rounded=0;entryX=0.234;entryY=0.882;entryDx=0;entryDy=0;entryPerimeter=0;" edge="1" parent="WIyWlLk6GJQsqaUBKTNV-1" target="zIrrqt9jHn9ZY_wC2e0F-65">
          <mxGeometry width="50" height="50" relative="1" as="geometry">
            <mxPoint x="230" y="-50" as="sourcePoint" />
            <mxPoint x="272" y="-139" as="targetPoint" />
          </mxGeometry>
        </mxCell>
        <mxCell id="zIrrqt9jHn9ZY_wC2e0F-75" value="" style="endArrow=none;html=1;rounded=0;entryX=0.216;entryY=0.951;entryDx=0;entryDy=0;entryPerimeter=0;exitX=0.75;exitY=0;exitDx=0;exitDy=0;" edge="1" parent="WIyWlLk6GJQsqaUBKTNV-1" source="WIyWlLk6GJQsqaUBKTNV-3" target="zIrrqt9jHn9ZY_wC2e0F-62">
          <mxGeometry width="50" height="50" relative="1" as="geometry">
            <mxPoint x="245" y="-43" as="sourcePoint" />
            <mxPoint x="347" y="-145" as="targetPoint" />
          </mxGeometry>
        </mxCell>
        <mxCell id="zIrrqt9jHn9ZY_wC2e0F-76" value="" style="endArrow=none;html=1;rounded=0;entryX=0;entryY=0.5;entryDx=0;entryDy=0;exitX=0.898;exitY=-0.018;exitDx=0;exitDy=0;exitPerimeter=0;" edge="1" parent="WIyWlLk6GJQsqaUBKTNV-1" source="WIyWlLk6GJQsqaUBKTNV-3" target="zIrrqt9jHn9ZY_wC2e0F-64">
          <mxGeometry width="50" height="50" relative="1" as="geometry">
            <mxPoint x="260" y="-40" as="sourcePoint" />
            <mxPoint x="449" y="-142" as="targetPoint" />
          </mxGeometry>
        </mxCell>
        <mxCell id="zIrrqt9jHn9ZY_wC2e0F-78" value="&lt;b&gt;&lt;u&gt;chatId&lt;/u&gt;&lt;/b&gt;" style="ellipse;whiteSpace=wrap;html=1;" vertex="1" parent="WIyWlLk6GJQsqaUBKTNV-1">
          <mxGeometry x="630" y="-50" width="70" height="40" as="geometry" />
        </mxCell>
        <mxCell id="zIrrqt9jHn9ZY_wC2e0F-80" value="messageDate" style="ellipse;whiteSpace=wrap;html=1;" vertex="1" parent="WIyWlLk6GJQsqaUBKTNV-1">
          <mxGeometry x="625" width="80" height="40" as="geometry" />
        </mxCell>
        <mxCell id="zIrrqt9jHn9ZY_wC2e0F-81" value="" style="endArrow=none;html=1;rounded=0;entryX=0.017;entryY=0.701;entryDx=0;entryDy=0;entryPerimeter=0;exitX=1;exitY=0;exitDx=0;exitDy=0;" edge="1" parent="WIyWlLk6GJQsqaUBKTNV-1" source="WIyWlLk6GJQsqaUBKTNV-11" target="zIrrqt9jHn9ZY_wC2e0F-78">
          <mxGeometry width="50" height="50" relative="1" as="geometry">
            <mxPoint x="520" y="40" as="sourcePoint" />
            <mxPoint x="470" y="-110" as="targetPoint" />
          </mxGeometry>
        </mxCell>
        <mxCell id="zIrrqt9jHn9ZY_wC2e0F-82" value="" style="endArrow=none;html=1;rounded=0;entryX=0;entryY=0.5;entryDx=0;entryDy=0;exitX=1;exitY=0.25;exitDx=0;exitDy=0;" edge="1" parent="WIyWlLk6GJQsqaUBKTNV-1" source="WIyWlLk6GJQsqaUBKTNV-11" target="zIrrqt9jHn9ZY_wC2e0F-80">
          <mxGeometry width="50" height="50" relative="1" as="geometry">
            <mxPoint x="533" y="51" as="sourcePoint" />
            <mxPoint x="601" y="-2" as="targetPoint" />
          </mxGeometry>
        </mxCell>
        <mxCell id="zIrrqt9jHn9ZY_wC2e0F-86" value="&lt;b&gt;&lt;u&gt;postId&lt;/u&gt;&lt;/b&gt;" style="ellipse;whiteSpace=wrap;html=1;" vertex="1" parent="WIyWlLk6GJQsqaUBKTNV-1">
          <mxGeometry x="635" y="180" width="70" height="40" as="geometry" />
        </mxCell>
        <mxCell id="zIrrqt9jHn9ZY_wC2e0F-87" value="title" style="ellipse;whiteSpace=wrap;html=1;" vertex="1" parent="WIyWlLk6GJQsqaUBKTNV-1">
          <mxGeometry x="635" y="230" width="70" height="40" as="geometry" />
        </mxCell>
        <mxCell id="zIrrqt9jHn9ZY_wC2e0F-88" value="body" style="ellipse;whiteSpace=wrap;html=1;" vertex="1" parent="WIyWlLk6GJQsqaUBKTNV-1">
          <mxGeometry x="635" y="280" width="70" height="40" as="geometry" />
        </mxCell>
        <mxCell id="zIrrqt9jHn9ZY_wC2e0F-89" value="createdAt" style="ellipse;whiteSpace=wrap;html=1;" vertex="1" parent="WIyWlLk6GJQsqaUBKTNV-1">
          <mxGeometry x="635" y="330" width="70" height="40" as="geometry" />
        </mxCell>
        <mxCell id="zIrrqt9jHn9ZY_wC2e0F-92" value="" style="endArrow=none;html=1;rounded=0;entryX=0;entryY=0.5;entryDx=0;entryDy=0;exitX=1;exitY=0;exitDx=0;exitDy=0;" edge="1" parent="WIyWlLk6GJQsqaUBKTNV-1" target="zIrrqt9jHn9ZY_wC2e0F-86">
          <mxGeometry width="50" height="50" relative="1" as="geometry">
            <mxPoint x="570" y="220" as="sourcePoint" />
            <mxPoint x="611" y="158" as="targetPoint" />
          </mxGeometry>
        </mxCell>
        <mxCell id="zIrrqt9jHn9ZY_wC2e0F-93" value="" style="endArrow=none;html=1;rounded=0;entryX=0;entryY=0.5;entryDx=0;entryDy=0;exitX=1;exitY=0.5;exitDx=0;exitDy=0;" edge="1" parent="WIyWlLk6GJQsqaUBKTNV-1" source="zIrrqt9jHn9ZY_wC2e0F-0" target="zIrrqt9jHn9ZY_wC2e0F-87">
          <mxGeometry width="50" height="50" relative="1" as="geometry">
            <mxPoint x="570" y="240" as="sourcePoint" />
            <mxPoint x="630" y="220" as="targetPoint" />
          </mxGeometry>
        </mxCell>
        <mxCell id="zIrrqt9jHn9ZY_wC2e0F-94" value="" style="endArrow=none;html=1;rounded=0;entryX=0;entryY=0.5;entryDx=0;entryDy=0;exitX=1;exitY=0.75;exitDx=0;exitDy=0;" edge="1" parent="WIyWlLk6GJQsqaUBKTNV-1" source="zIrrqt9jHn9ZY_wC2e0F-0">
          <mxGeometry width="50" height="50" relative="1" as="geometry">
            <mxPoint x="570" y="280" as="sourcePoint" />
            <mxPoint x="635" y="300" as="targetPoint" />
          </mxGeometry>
        </mxCell>
        <mxCell id="zIrrqt9jHn9ZY_wC2e0F-95" value="" style="endArrow=none;html=1;rounded=0;entryX=0;entryY=0.5;entryDx=0;entryDy=0;exitX=1;exitY=1;exitDx=0;exitDy=0;" edge="1" parent="WIyWlLk6GJQsqaUBKTNV-1" source="zIrrqt9jHn9ZY_wC2e0F-0" target="zIrrqt9jHn9ZY_wC2e0F-89">
          <mxGeometry width="50" height="50" relative="1" as="geometry">
            <mxPoint x="570" y="250" as="sourcePoint" />
            <mxPoint x="645" y="310" as="targetPoint" />
          </mxGeometry>
        </mxCell>
        <mxCell id="zIrrqt9jHn9ZY_wC2e0F-97" value="&lt;b&gt;&lt;u&gt;name&lt;/u&gt;&lt;/b&gt;" style="ellipse;whiteSpace=wrap;html=1;" vertex="1" parent="WIyWlLk6GJQsqaUBKTNV-1">
          <mxGeometry x="-125" y="320" width="70" height="40" as="geometry" />
        </mxCell>
        <mxCell id="zIrrqt9jHn9ZY_wC2e0F-98" value="description" style="ellipse;whiteSpace=wrap;html=1;" vertex="1" parent="WIyWlLk6GJQsqaUBKTNV-1">
          <mxGeometry x="-125" y="270" width="70" height="40" as="geometry" />
        </mxCell>
        <mxCell id="zIrrqt9jHn9ZY_wC2e0F-99" value="title" style="ellipse;whiteSpace=wrap;html=1;" vertex="1" parent="WIyWlLk6GJQsqaUBKTNV-1">
          <mxGeometry x="-125" y="370" width="70" height="40" as="geometry" />
        </mxCell>
        <mxCell id="zIrrqt9jHn9ZY_wC2e0F-102" value="" style="endArrow=none;html=1;rounded=0;entryX=0;entryY=0.25;entryDx=0;entryDy=0;exitX=1;exitY=0.5;exitDx=0;exitDy=0;" edge="1" parent="WIyWlLk6GJQsqaUBKTNV-1" source="zIrrqt9jHn9ZY_wC2e0F-98" target="WIyWlLk6GJQsqaUBKTNV-12">
          <mxGeometry width="50" height="50" relative="1" as="geometry">
            <mxPoint x="-60" y="317.5" as="sourcePoint" />
            <mxPoint x="-48" y="362.5" as="targetPoint" />
          </mxGeometry>
        </mxCell>
        <mxCell id="zIrrqt9jHn9ZY_wC2e0F-104" value="" style="endArrow=none;html=1;rounded=0;entryX=-0.008;entryY=0.885;entryDx=0;entryDy=0;exitX=1;exitY=0.5;exitDx=0;exitDy=0;entryPerimeter=0;" edge="1" parent="WIyWlLk6GJQsqaUBKTNV-1" source="zIrrqt9jHn9ZY_wC2e0F-99" target="WIyWlLk6GJQsqaUBKTNV-12">
          <mxGeometry width="50" height="50" relative="1" as="geometry">
            <mxPoint x="-45" y="377" as="sourcePoint" />
            <mxPoint y="350" as="targetPoint" />
          </mxGeometry>
        </mxCell>
        <mxCell id="zIrrqt9jHn9ZY_wC2e0F-105" value="" style="endArrow=none;html=1;rounded=0;exitX=1;exitY=0.5;exitDx=0;exitDy=0;" edge="1" parent="WIyWlLk6GJQsqaUBKTNV-1" source="zIrrqt9jHn9ZY_wC2e0F-97">
          <mxGeometry width="50" height="50" relative="1" as="geometry">
            <mxPoint x="-45" y="310" as="sourcePoint" />
            <mxPoint x="-10" y="340" as="targetPoint" />
          </mxGeometry>
        </mxCell>
        <mxCell id="zIrrqt9jHn9ZY_wC2e0F-106" value="&lt;b&gt;&lt;u&gt;contactId&lt;/u&gt;&lt;/b&gt;" style="ellipse;whiteSpace=wrap;html=1;" vertex="1" parent="WIyWlLk6GJQsqaUBKTNV-1">
          <mxGeometry x="485" y="480" width="70" height="40" as="geometry" />
        </mxCell>
        <mxCell id="zIrrqt9jHn9ZY_wC2e0F-107" value="" style="endArrow=none;html=1;rounded=0;entryX=0.5;entryY=0;entryDx=0;entryDy=0;exitX=0.5;exitY=1;exitDx=0;exitDy=0;" edge="1" parent="WIyWlLk6GJQsqaUBKTNV-1" source="WIyWlLk6GJQsqaUBKTNV-7" target="zIrrqt9jHn9ZY_wC2e0F-106">
          <mxGeometry width="50" height="50" relative="1" as="geometry">
            <mxPoint x="-45" y="300" as="sourcePoint" />
            <mxPoint y="340" as="targetPoint" />
          </mxGeometry>
        </mxCell>
      </root>
    </mxGraphModel>
  </diagram>
</mxfile>
